<svg width="368" height="64" viewBox="0 0 75 12" fill="none" xmlns="http://www.w3.org/2000/svg">
<path d="M4.476 11.292C4.028 11.292 3.632 11.204 3.288 11.028C2.952 10.852 2.696 10.604 2.52 10.284C2.344 9.97201 2.268 9.59601 2.292 9.15601L2.412 7.33201C2.436 7.00401 2.368 6.75601 2.208 6.58801C2.056 6.42001 1.796 6.33601 1.428 6.33601H1.99676e-06V4.95601H1.428C1.796 4.95601 2.056 4.87201 2.208 4.70401C2.368 4.53601 2.436 4.29201 2.412 3.97201L2.292 2.08801C2.268 1.65601 2.344 1.28401 2.52 0.972007C2.696 0.660006 2.952 0.420006 3.288 0.252007C3.632 0.0840063 4.028 6.19888e-06 4.476 6.19888e-06H5.304V1.38001H4.692C4.404 1.38001 4.176 1.44801 4.008 1.58401C3.848 1.72001 3.776 1.93601 3.792 2.23201L3.912 4.10401C3.944 4.57601 3.804 4.95601 3.492 5.24401C3.18 5.53201 2.744 5.67601 2.184 5.67601V5.59201C2.736 5.59201 3.168 5.74001 3.48 6.03601C3.8 6.32401 3.944 6.70801 3.912 7.18801L3.792 9.06001C3.784 9.32401 3.86 9.53201 4.02 9.68401C4.188 9.82801 4.412 9.90001 4.692 9.90001H5.304V11.292H4.476ZM69.0352 11.292V9.90001H69.6472C69.9272 9.90001 70.1512 9.82801 70.3192 9.68401C70.4872 9.53201 70.5632 9.32401 70.5472 9.06001L70.4272 7.18801C70.3952 6.70801 70.5352 6.32401 70.8472 6.03601C71.1672 5.74001 71.6032 5.59201 72.1552 5.59201V5.67601C71.6032 5.67601 71.1672 5.53201 70.8472 5.24401C70.5352 4.95601 70.3952 4.57601 70.4272 4.10401L70.5472 2.23201C70.5632 1.93601 70.4872 1.72001 70.3192 1.58401C70.1592 1.44801 69.9352 1.38001 69.6472 1.38001H69.0352V6.19888e-06H69.8632C70.3112 6.19888e-06 70.7032 0.0840063 71.0392 0.252007C71.3832 0.420006 71.6432 0.660006 71.8192 0.972007C71.9952 1.28401 72.0712 1.65601 72.0472 2.08801L71.9272 3.97201C71.9032 4.29201 71.9712 4.53601 72.1312 4.70401C72.2912 4.87201 72.5512 4.95601 72.9112 4.95601H74.3392V6.33601H72.9112C72.5512 6.33601 72.2912 6.42001 72.1312 6.58801C71.9712 6.75601 71.9032 7.00401 71.9272 7.33201L72.0472 9.15601C72.0712 9.59601 71.9952 9.97201 71.8192 10.284C71.6432 10.604 71.3832 10.852 71.0392 11.028C70.7032 11.204 70.3112 11.292 69.8632 11.292H69.0352Z" fill="#FF6A00"/>
<path d="M11.422 10.08C10.766 10.08 10.234 9.85201 9.82599 9.39601C9.42599 8.94001 9.22599 8.32801 9.22599 7.56001V5.77201C9.22599 4.99601 9.42599 4.38001 9.82599 3.92401C10.226 3.46801 10.758 3.24001 11.422 3.24001C11.966 3.24001 12.398 3.39601 12.718 3.70801C13.038 4.01201 13.198 4.43201 13.198 4.96801L12.862 4.62001H13.21L13.162 3.04801V1.20001H14.662V9.96001H13.198V8.70001H12.862L13.198 8.35201C13.198 8.88801 13.038 9.31201 12.718 9.62401C12.398 9.92801 11.966 10.08 11.422 10.08ZM11.95 8.78401C12.334 8.78401 12.63 8.67201 12.838 8.44801C13.054 8.21601 13.162 7.89601 13.162 7.48801V5.83201C13.162 5.42401 13.054 5.10801 12.838 4.88401C12.63 4.65201 12.334 4.53601 11.95 4.53601C11.566 4.53601 11.266 4.64801 11.05 4.87201C10.834 5.09601 10.726 5.41601 10.726 5.83201V7.48801C10.726 7.90401 10.834 8.22401 11.05 8.44801C11.266 8.67201 11.566 8.78401 11.95 8.78401ZM19.1813 10.068C18.6213 10.068 18.1333 9.96401 17.7173 9.75601C17.3093 9.54001 16.9893 9.24001 16.7573 8.85601C16.5333 8.46401 16.4213 8.00401 16.4213 7.47601V5.84401C16.4213 5.31601 16.5333 4.86001 16.7573 4.47601C16.9893 4.08401 17.3093 3.78401 17.7173 3.57601C18.1333 3.36001 18.6213 3.25201 19.1813 3.25201C19.7493 3.25201 20.2373 3.36001 20.6453 3.57601C21.0533 3.78401 21.3693 4.08401 21.5933 4.47601C21.8253 4.86001 21.9413 5.31201 21.9413 5.83201V7.47601C21.9413 8.00401 21.8253 8.46401 21.5933 8.85601C21.3693 9.24001 21.0533 9.54001 20.6453 9.75601C20.2373 9.96401 19.7493 10.068 19.1813 10.068ZM19.1813 8.76001C19.5813 8.76001 19.8893 8.65201 20.1053 8.43601C20.3293 8.21201 20.4413 7.89201 20.4413 7.47601V5.84401C20.4413 5.42001 20.3293 5.10001 20.1053 4.88401C19.8893 4.66801 19.5813 4.56001 19.1813 4.56001C18.7893 4.56001 18.4813 4.66801 18.2573 4.88401C18.0333 5.10001 17.9213 5.42001 17.9213 5.84401V7.47601C17.9213 7.89201 18.0333 8.21201 18.2573 8.43601C18.4813 8.65201 18.7893 8.76001 19.1813 8.76001ZM27.0966 9.96001C26.4646 9.96001 25.9686 9.78401 25.6086 9.43201C25.2566 9.08001 25.0806 8.59601 25.0806 7.98001V4.71601H23.2926V3.36001H25.0806V1.50001H26.5926V3.36001H29.1246V4.71601H26.5926V7.98001C26.5926 8.39601 26.7966 8.60401 27.2046 8.60401H29.0046V9.96001H27.0966Z" fill="#0011ff"/>
<path d="M33.5719 10.08C33.2279 10.08 32.9519 9.98001 32.7439 9.78001C32.5439 9.58001 32.4439 9.30801 32.4439 8.96401C32.4439 8.62001 32.5439 8.34801 32.7439 8.14801C32.9519 7.94001 33.2279 7.83601 33.5719 7.83601C33.9159 7.83601 34.1879 7.94001 34.3879 8.14801C34.5959 8.34801 34.6999 8.62001 34.6999 8.96401C34.6999 9.30801 34.5959 9.58001 34.3879 9.78001C34.1879 9.98001 33.9159 10.08 33.5719 10.08Z" fill="#FF0000"/>
<path d="M38.2592 9.96001V9.24001H40.6472V4.08001H38.5592V3.36001H41.4392V9.24001H43.6832V9.96001H38.2592ZM40.9472 2.12401C40.7152 2.12401 40.5312 2.06401 40.3952 1.94401C40.2592 1.81601 40.1912 1.64401 40.1912 1.42801C40.1912 1.21201 40.2592 1.04001 40.3952 0.912007C40.5312 0.784006 40.7152 0.720006 40.9472 0.720006C41.1792 0.720006 41.3632 0.784006 41.4992 0.912007C41.6352 1.04001 41.7032 1.21201 41.7032 1.42801C41.7032 1.64401 41.6352 1.81601 41.4992 1.94401C41.3632 2.06401 41.1792 2.12401 40.9472 2.12401ZM45.5145 9.96001V9.24001H47.9505V1.88401L45.5745 3.64801V2.76001L47.6865 1.20001H48.7425V9.24001H50.7705V9.96001H45.5145ZM55.1579 10.08C54.6379 10.08 54.1819 9.98801 53.7899 9.80401C53.4059 9.62001 53.1099 9.36001 52.9019 9.02401C52.6939 8.68001 52.5899 8.27601 52.5899 7.81201C52.5899 7.29201 52.7339 6.84401 53.0219 6.46801C53.3099 6.09201 53.7779 5.75201 54.4259 5.44801L55.5539 4.89601C55.9939 4.68801 56.3139 4.44401 56.5139 4.16401C56.7139 3.88401 56.8139 3.57201 56.8139 3.22801C56.8139 2.79601 56.6619 2.44801 56.3579 2.18401C56.0539 1.92001 55.6539 1.78801 55.1579 1.78801C54.6699 1.78801 54.2819 1.92001 53.9939 2.18401C53.7139 2.44001 53.5739 2.79201 53.5739 3.24001C53.5739 3.58401 53.6699 3.89601 53.8619 4.17601C54.0619 4.45601 54.3619 4.69201 54.7619 4.88401L55.8659 5.43601C56.5299 5.75601 57.0059 6.10401 57.2939 6.48001C57.5819 6.84801 57.7259 7.29201 57.7259 7.81201C57.7259 8.50801 57.4939 9.06001 57.0299 9.46801C56.5739 9.87601 55.9499 10.08 55.1579 10.08ZM55.1579 9.37201C55.7099 9.37201 56.1459 9.23201 56.4659 8.95201C56.7859 8.67201 56.9459 8.29601 56.9459 7.82401C56.9459 7.43201 56.8339 7.08001 56.6099 6.76801C56.3859 6.45601 56.0539 6.19201 55.6139 5.97601L54.5099 5.43601C53.9259 5.14801 53.4939 4.82401 53.2139 4.46401C52.9339 4.09601 52.7939 3.67601 52.7939 3.20401C52.7939 2.78001 52.8939 2.40801 53.0939 2.08801C53.2939 1.76801 53.5699 1.52001 53.9219 1.34401C54.2819 1.16801 54.6939 1.08001 55.1579 1.08001C55.6299 1.08001 56.0499 1.17201 56.4179 1.35601C56.7859 1.53201 57.0739 1.78001 57.2819 2.10001C57.4899 2.42001 57.5939 2.78801 57.5939 3.20401C57.5939 3.66801 57.4459 4.08401 57.1499 4.45201C56.8619 4.81201 56.4099 5.14401 55.7939 5.44801L54.6899 5.97601C54.2579 6.18401 53.9299 6.44401 53.7059 6.75601C53.4819 7.06801 53.3699 7.41601 53.3699 7.80001C53.3699 8.28001 53.5299 8.66401 53.8499 8.95201C54.1779 9.23201 54.6139 9.37201 55.1579 9.37201ZM59.9892 9.96001V3.36001H60.7812V4.54801H61.0332L60.7332 5.01601C60.7332 4.46401 60.8972 4.03201 61.2252 3.72001C61.5612 3.40001 62.0132 3.24001 62.5812 3.24001C63.2372 3.24001 63.7612 3.44801 64.1532 3.86401C64.5452 4.27201 64.7412 4.83201 64.7412 5.54401V9.96001H63.9492V5.64001C63.9492 5.09601 63.8092 4.67601 63.5292 4.38001C63.2492 4.07601 62.8692 3.92401 62.3892 3.92401C61.8932 3.92401 61.5012 4.08001 61.2132 4.39201C60.9252 4.70401 60.7812 5.13601 60.7812 5.68801V9.96001H59.9892Z" fill="#44D32D"/>
</svg>
