<svg width="640" height="320" viewBox="0 0 20 12" fill="black" xmlns="http://www.w3.org/2000/svg">
<path d="M4.476 11.292C4.028 11.292 3.632 11.204 3.288 11.028C2.952 10.852 2.696 10.604 2.52 10.284C2.344 9.972 2.268 9.596 2.292 9.156L2.412 7.332C2.436 7.004 2.368 6.756 2.208 6.588C2.056 6.42 1.796 6.336 1.428 6.336H1.99676e-06V4.956H1.428C1.796 4.956 2.056 4.872 2.208 4.704C2.368 4.536 2.436 4.292 2.412 3.972L2.292 2.088C2.268 1.656 2.344 1.284 2.52 0.971999C2.696 0.659999 2.952 0.419999 3.288 0.251999C3.632 0.0839987 4.028 -1.43051e-06 4.476 -1.43051e-06H5.304V1.38H4.692C4.404 1.38 4.176 1.448 4.008 1.584C3.848 1.72 3.776 1.936 3.792 2.232L3.912 4.104C3.944 4.576 3.804 4.956 3.492 5.244C3.18 5.532 2.744 5.676 2.184 5.676V5.592C2.736 5.592 3.168 5.74 3.48 6.036C3.8 6.324 3.944 6.708 3.912 7.188L3.792 9.06C3.784 9.324 3.86 9.532 4.02 9.684C4.188 9.828 4.412 9.9 4.692 9.9H5.304V11.292H4.476ZM14.3906 11.292V9.9H15.0026C15.2826 9.9 15.5066 9.828 15.6746 9.684C15.8426 9.532 15.9186 9.324 15.9026 9.06L15.7826 7.188C15.7506 6.708 15.8906 6.324 16.2026 6.036C16.5226 5.74 16.9586 5.592 17.5106 5.592V5.676C16.9586 5.676 16.5226 5.532 16.2026 5.244C15.8906 4.956 15.7506 4.576 15.7826 4.104L15.9026 2.232C15.9186 1.936 15.8426 1.72 15.6746 1.584C15.5146 1.448 15.2906 1.38 15.0026 1.38H14.3906V-1.43051e-06H15.2186C15.6666 -1.43051e-06 16.0586 0.0839987 16.3946 0.251999C16.7386 0.419999 16.9986 0.659999 17.1746 0.971999C17.3506 1.284 17.4266 1.656 17.4026 2.088L17.2826 3.972C17.2586 4.292 17.3266 4.536 17.4866 4.704C17.6466 4.872 17.9066 4.956 18.2666 4.956H19.6946V6.336H18.2666C17.9066 6.336 17.6466 6.42 17.4866 6.588C17.3266 6.756 17.2586 7.004 17.2826 7.332L17.4026 9.156C17.4266 9.596 17.3506 9.972 17.1746 10.284C16.9986 10.604 16.7386 10.852 16.3946 11.028C16.0586 11.204 15.6666 11.292 15.2186 11.292H14.3906Z" fill="#FF6A00"/>
<path d="M9.84731 6.9C9.50331 6.9 9.22731 6.8 9.01931 6.6C8.81931 6.4 8.71931 6.128 8.71931 5.784C8.71931 5.44 8.81931 5.168 9.01931 4.968C9.22731 4.76 9.50331 4.656 9.84731 4.656C10.1913 4.656 10.4633 4.76 10.6633 4.968C10.8713 5.168 10.9753 5.44 10.9753 5.784C10.9753 6.128 10.8713 6.4 10.6633 6.6C10.4633 6.8 10.1913 6.9 9.84731 6.9Z" fill="#FF0000"/>
</svg>
